<svg xmlns="http://www.w3.org/2000/svg" xmlns:xlink="http://www.w3.org/1999/xlink" width="248.592" height="24.929" viewBox="0 0 248.592 24.929">
  <defs>
    <clipPath id="clip-path">
      <rect id="長方形_25" data-name="長方形 25" width="248.592" height="24.929" fill="none"/>
    </clipPath>
  </defs>
  <g id="グループ_6885" data-name="グループ 6885" transform="translate(0 0)">
    <g id="グループ_6884" data-name="グループ 6884" transform="translate(0 0)" clip-path="url(#clip-path)">
      <path id="パス_9985" data-name="パス 9985" d="M8.749,24.832c0-.831-.074-1.149-.318-1.344-.806.1-1.735.2-2.419.269a3.449,3.449,0,0,1-.88.146c-.342,0-.635-.146-1.417-1a2.139,2.139,0,0,1-.66-1,3.817,3.817,0,0,1,.049-.611c.024-.147.049-.171.122-.171a.489.489,0,0,1,.2.074A3.07,3.07,0,0,0,5.23,21.7c.855,0,2.126-.122,3.3-.245,1.662-.2,2.762-.391,3.641-.562a3.44,3.44,0,0,0,1.417-.465,1.984,1.984,0,0,1,.807-.317,4.537,4.537,0,0,1,1.54.415c.929.367,1.344.758,1.344,1.418,0,.611-.318.855-1.2.9-1.662.1-3.666.244-5.254.391.635.489.88.831.88,1.051a1.817,1.817,0,0,1-.122.611,7.3,7.3,0,0,0-.1,1.075c-.1,1.173-.146,2.2-.2,3.177,1.076-.074,2.126-.1,3.055-.122a4.109,4.109,0,0,0,2.077-.318,2.218,2.218,0,0,1,.855-.269,3.536,3.536,0,0,1,1.564.611c1.32.758,1.564,1,1.564,1.784,0,.587-.391.782-1.076.782a8.625,8.625,0,0,1-1.564-.171,23.72,23.72,0,0,0-3.837-.293,57.3,57.3,0,0,0-6.6.342,24.609,24.609,0,0,0-3.593.66,3.149,3.149,0,0,0-.562.293,1.1,1.1,0,0,1-.587.22c-.342-.025-.709-.22-1.613-1.051C.171,30.844,0,30.379,0,30.208A3.3,3.3,0,0,1,.1,29.5c.024-.1.024-.122.073-.122s.049,0,.171.073a3.227,3.227,0,0,0,1.76.465,18.793,18.793,0,0,0,2.4-.147c1.491-.171,2.175-.244,4.106-.415.073-1.516.147-3.348.147-4.521" transform="translate(0 -13.509)"/>
      <path id="パス_9986" data-name="パス 9986" d="M69.471,23.071a.48.48,0,0,1-.171.024c-.1,0-.171-.049-.171-.146a.176.176,0,0,1,.1-.146A42.582,42.582,0,0,0,80.542,11.584a2.62,2.62,0,0,0,.562-1.344c0-.416-.171-.684-.782-1.149-.1-.074-.146-.122-.146-.2,0-.049.049-.1.2-.147a3.958,3.958,0,0,1,1.222-.244c.415,0,.977.293,1.979,1.173.855.757,1.149,1.051,1.149,1.442a.856.856,0,0,1-.342.684,7.288,7.288,0,0,0-.953.978c-.929,1.148-1.784,2.077-2.566,2.908.1.074.2.171.293.245a.8.8,0,0,1,.367.611.977.977,0,0,1-.074.366,3.757,3.757,0,0,0-.073,1.222c0,2.762.122,6.7.122,8.774,0,1.3-.538,1.857-1.271,1.857a1.49,1.49,0,0,1-1.417-1.026,5.463,5.463,0,0,1-.562-1.931,2.8,2.8,0,0,1,.171-.782,4.569,4.569,0,0,0,.269-1.417c.049-1.784.049-3.177.049-6.037a30.357,30.357,0,0,1-9.262,5.5" transform="translate(-46.427 -5.712)"/>
      <path id="パス_9987" data-name="パス 9987" d="M139.8,18.567c-.733,0-1.2-.317-1.735-1.173a6.066,6.066,0,0,0-2.517-2.322c-.146-.073-.2-.147-.2-.22,0-.1.049-.146.171-.171a5.156,5.156,0,0,1,1.148-.1h.464c2.542.074,4.155,1,4.155,2.493a1.386,1.386,0,0,1-1.491,1.491M137.921,24.6c-.709-.758-.953-1.222-.953-1.54a5.576,5.576,0,0,1,.2-1.344c.024-.1.073-.171.122-.171s.122.049.22.147a2.167,2.167,0,0,0,1.613.88,3.078,3.078,0,0,0,1.3-.391A69.953,69.953,0,0,0,154.27,13a.338.338,0,0,1,.22-.122c.1,0,.147.074.147.171a.218.218,0,0,1-.025.122c-3.641,4.912-7.454,8.26-13.954,12.415a1.13,1.13,0,0,1-.831.342c-.489,0-.88-.318-1.906-1.32m-.244-14.957c0-.073.049-.122.2-.146a9.8,9.8,0,0,1,1.173-.074c2.762,0,4.643.88,4.643,2.469a1.471,1.471,0,0,1-1.564,1.637,1.805,1.805,0,0,1-1.491-1,7.508,7.508,0,0,0-2.786-2.688c-.146-.074-.171-.122-.171-.2m13.954-.562c.879.513,1.222,1.051,1.222,1.711a1.059,1.059,0,0,1-1.075,1.148,1.043,1.043,0,0,1-.953-.782,6.054,6.054,0,0,0-1.833-2.469c-.122-.1-.2-.122-.2-.2s.074-.1.269-.1a5.307,5.307,0,0,1,2.566.684m.024-2.664a5.413,5.413,0,0,1,2.248.44c1,.489,1.369.9,1.369,1.662a1.01,1.01,0,0,1-1,1.076c-.489,0-.757-.244-1.051-.831a5.112,5.112,0,0,0-1.882-2.029c-.147-.1-.2-.122-.2-.22,0-.073.1-.1.269-.1Z" transform="translate(-90.904 -4.312)"/>
      <path id="パス_9988" data-name="パス 9988" d="M210.563,23.093c-.807,0-1.222-.391-1.711-1.222a7.956,7.956,0,0,0-3.03-3.3.134.134,0,0,1-.073-.122c0-.049.049-.122.171-.146a7.549,7.549,0,0,1,.806-.049c3.373,0,5.426,1.32,5.426,3.079a1.585,1.585,0,0,1-1.589,1.76m-2.151,9.629a12.6,12.6,0,0,1-1.637-1.588,2.027,2.027,0,0,1-.513-1c0-.22.025-.659.049-.977.024-.171.049-.2.147-.2.049,0,.122.049.269.146a2.6,2.6,0,0,0,1.588.562,3.366,3.366,0,0,0,1.369-.391,53.752,53.752,0,0,0,13.71-9.922.3.3,0,0,1,.2-.1.167.167,0,0,1,.171.171.146.146,0,0,1-.024.1c-3.471,5.279-7.38,8.774-12.9,12.586-.391.269-.66.489-.953.684a1.044,1.044,0,0,1-.66.244,1.137,1.137,0,0,1-.807-.318" transform="translate(-138.18 -12.259)"/>
      <path id="パス_9989" data-name="パス 9989" d="M277.19,7.586c.831-.1,1.515-.2,2.395-.366a2.229,2.229,0,0,0,.929-.391c.367-.269.44-.342.66-.342.269,0,.66.2,1.466.855,1.222,1.026,1.564,1.417,1.564,1.833s-.171.538-.562.807a2.391,2.391,0,0,0-.953,1.075c-4.106,7.674-8.212,11.315-14.37,13.637a.8.8,0,0,1-.244.073.183.183,0,0,1-.171-.171c0-.074.025-.122.122-.2,5.108-3.128,9.311-8.6,12.048-15.005a.72.72,0,0,0,.049-.22.245.245,0,0,0-.244-.244c-.147,0-.978.122-2,.318a2.666,2.666,0,0,1-.587.1,2.577,2.577,0,0,1-.928-.269A21.473,21.473,0,0,1,268.1,16.7a.462.462,0,0,1-.22.073.2.2,0,0,1-.22-.2.18.18,0,0,1,.049-.147,25.283,25.283,0,0,0,5.67-7.918,2.8,2.8,0,0,0,.415-1.222c0-.439-.391-.855-1.051-1.3-.122-.073-.147-.1-.147-.146s.049-.073.2-.122a4.941,4.941,0,0,1,1.247-.22,4.737,4.737,0,0,1,1.98.929c.758.489,1.148.807,1.173,1.075Zm5.694-3.031a4.969,4.969,0,0,1,2.419.636,2,2,0,0,1,1.2,1.686,1.034,1.034,0,0,1-1,1.148.985.985,0,0,1-.953-.684,4.9,4.9,0,0,0-1.857-2.493c-.122-.074-.2-.122-.2-.2s.074-.1.269-.1Zm4.643-1.539c.9.464,1.32.88,1.32,1.637a1.051,1.051,0,0,1-.953,1.076c-.513,0-.758-.1-1.051-.758a5.244,5.244,0,0,0-1.882-2.077c-.147-.1-.2-.122-.22-.22,0-.074.1-.122.269-.122a5.761,5.761,0,0,1,2.517.464" transform="translate(-179.759 -1.714)"/>
      <path id="パス_9990" data-name="パス 9990" d="M345.409,17.653a1.381,1.381,0,0,1-.171.635c-.122.245-.244.538-.415.88-2.468,5.132-5.034,8.065-9.409,9.971a.557.557,0,0,1-.293.073.141.141,0,0,1-.146-.146c0-.049.024-.1.1-.171,2.982-2.4,5.279-6.061,6.868-10.558a4.482,4.482,0,0,0,.22-1.271c0-.171-.049-.415-.44-.855-.635.049-1.026.074-1.32.1-.391.024-.611.049-.978.049-.293,0-.562-.1-1.442-.611a17.731,17.731,0,0,1-6.256,5.157.265.265,0,0,1-.122.025c-.1,0-.171-.049-.171-.147,0-.049.024-.1.122-.2a23.5,23.5,0,0,0,5.5-8.407,2.835,2.835,0,0,0,.318-1.2c0-.318-.171-.782-1.051-1.222-.1-.049-.146-.1-.146-.171,0-.049.049-.1.171-.146a6.318,6.318,0,0,1,1.711-.415,3.307,3.307,0,0,1,1.759.929c.733.587,1.027.953,1.027,1.246a1.412,1.412,0,0,1-.342.807c-.22.293-.367.562-.587.9-.342.538-.66,1.051-.978,1.54q.477,0,1.467-.074c1.686-.146,3.641-.342,5.3-.611a3.376,3.376,0,0,0,1.271-.44,2.6,2.6,0,0,1,1.026-.44,4.943,4.943,0,0,1,1.833.538c1.051.489,1.319,1,1.319,1.466,0,.538-.342.807-.953.831-.9.049-2,.049-2.81.1-1.173.074-2.419.146-3.666.244,1.442.831,1.686,1.2,1.686,1.588" transform="translate(-222.587 -6.062)"/>
      <path id="パス_9991" data-name="パス 9991" d="M411.924,19.581a2.157,2.157,0,0,0-.318.733,19.375,19.375,0,0,1-2.322,5.792,14.519,14.519,0,0,1-6.379,5.328.264.264,0,0,1-.122.025c-.1,0-.171-.049-.171-.122a.175.175,0,0,1,.073-.146,16.183,16.183,0,0,0,4.692-6.7,18.267,18.267,0,0,0,1.247-5.5c0-.489-.22-.782-1.149-1.271-.146-.073-.171-.1-.171-.146s.049-.073.147-.146c.757-.489,1.051-.587,1.271-.587a4.326,4.326,0,0,1,1.809.709,6.369,6.369,0,0,1,1.344.9,16.14,16.14,0,0,0,2.639-3.3.71.71,0,0,0,.146-.367c0-.122-.1-.17-.293-.17a67.116,67.116,0,0,0-9.287,1.271,4.007,4.007,0,0,0-1.246.415,1.455,1.455,0,0,1-.684.244c-.367,0-.758-.22-1.613-1.075a2.31,2.31,0,0,1-.831-1.417,5.212,5.212,0,0,1,.074-.9c.024-.122.049-.2.122-.2a.5.5,0,0,1,.22.122,3.083,3.083,0,0,0,1.809.684c.489,0,.758-.049,1.32-.1,3.764-.391,6.476-.635,9.971-1.051a2.878,2.878,0,0,0,.9-.22.978.978,0,0,1,.684-.244c.245,0,.684.22,1.882,1.271,1.173,1.026,1.564,1.515,1.564,2.053a.839.839,0,0,1-.709.9,8.551,8.551,0,0,0-2.273.758c-1.368.684-2.566,1.222-4.13,1.882a.968.968,0,0,1-.22.562" transform="translate(-269.113 -8.161)"/>
      <path id="パス_9992" data-name="パス 9992" d="M473.022,21.637c0,1.027-.1,1.369-.342,1.662a.958.958,0,0,1-.831.415,1.363,1.363,0,0,1-.953-.464,2.618,2.618,0,0,1-.708-1.393c0-.22.024-.66.024-1.2,0-1.344,0-1.539-.024-2.3a7.075,7.075,0,0,0-.2-1.735,2.95,2.95,0,0,0-1.051-1.32c-.146-.122-.146-.122-.146-.2,0-.049.049-.1.2-.146a2.944,2.944,0,0,1,.88-.171,3.673,3.673,0,0,1,1.809.66c3.348-.318,6.6-.611,9.091-.831a1.851,1.851,0,0,0,1.051-.391.829.829,0,0,1,.562-.22c.342,0,.758.244,1.735.978,1.051.855,1.491,1.344,1.491,1.735a.773.773,0,0,1-.415.709,1.708,1.708,0,0,0-.758,1.075c-2.835,7.6-6.33,11.218-11.022,13.613a.3.3,0,0,1-.171.049.167.167,0,0,1-.171-.171c0-.074.024-.122.122-.22,3.568-3.055,6.256-7.454,8.187-13.979a3.562,3.562,0,0,0,.171-.953c0-.2-.1-.244-.391-.244-.953,0-4.765.318-8.26.782.049,2,.122,3.837.122,4.252" transform="translate(-314.841 -9.41)"/>
      <path id="パス_9993" data-name="パス 9993" d="M533.055,23.071a.48.48,0,0,1-.171.024c-.1,0-.171-.049-.171-.146a.176.176,0,0,1,.1-.146,42.582,42.582,0,0,0,11.315-11.218,2.619,2.619,0,0,0,.562-1.344c0-.416-.171-.684-.782-1.149-.1-.074-.146-.122-.146-.2,0-.049.049-.1.2-.147a3.958,3.958,0,0,1,1.222-.244c.415,0,.977.293,1.979,1.173.855.757,1.149,1.051,1.149,1.442a.856.856,0,0,1-.342.684,7.291,7.291,0,0,0-.953.978c-.929,1.148-1.784,2.077-2.566,2.908.1.074.2.171.293.245a.8.8,0,0,1,.367.611.975.975,0,0,1-.074.366,3.764,3.764,0,0,0-.073,1.222c0,2.762.122,6.7.122,8.774,0,1.3-.538,1.857-1.271,1.857a1.49,1.49,0,0,1-1.417-1.026,5.462,5.462,0,0,1-.562-1.931,2.8,2.8,0,0,1,.171-.782,4.57,4.57,0,0,0,.269-1.417c.049-1.784.049-3.177.049-6.037a30.356,30.356,0,0,1-9.262,5.5" transform="translate(-357.768 -5.712)"/>
      <path id="パス_9994" data-name="パス 9994" d="M607.922,23.093c-.806,0-1.222-.391-1.711-1.222a7.959,7.959,0,0,0-3.03-3.3.134.134,0,0,1-.073-.122c0-.049.049-.122.171-.146a7.551,7.551,0,0,1,.806-.049c3.373,0,5.426,1.32,5.426,3.079a1.585,1.585,0,0,1-1.589,1.76m-2.151,9.629a12.589,12.589,0,0,1-1.637-1.588,2.027,2.027,0,0,1-.513-1c0-.22.025-.659.049-.977.024-.171.049-.2.147-.2.049,0,.122.049.269.146a2.6,2.6,0,0,0,1.589.562,3.365,3.365,0,0,0,1.369-.391,53.753,53.753,0,0,0,13.71-9.922.3.3,0,0,1,.2-.1.167.167,0,0,1,.171.171.145.145,0,0,1-.025.1c-3.47,5.279-7.38,8.774-12.9,12.586-.391.269-.66.489-.953.684a1.044,1.044,0,0,1-.66.244,1.137,1.137,0,0,1-.807-.318" transform="translate(-405.045 -12.259)"/>
      <path id="パス_9995" data-name="パス 9995" d="M695.2,14.372c0,.886.025,1.846.025,2.609a8.1,8.1,0,0,1-1.87,5.389c-1.378,1.846-2.412,2.56-3.47,2.56a1.533,1.533,0,0,1-1.7-1.5,1.473,1.473,0,0,1,1.55-1.6,1.652,1.652,0,0,1,1.452,1.182c.1.246.172.344.369.344s.344-.2.443-.763a24.279,24.279,0,0,0,.1-3.248c0-.861-.025-1.747-.025-3.15V8.884c0-.64-.369-1.009-.837-1.009l-1.083.025c-.148,0-.172-.025-.172-.2s.025-.2.172-.221c1.3-.148,3.691-.566,4.823-.837.222,0,.3.1.3.271l-.074,4.848Zm.246-12.452a1.9,1.9,0,0,1-3.79,0,1.9,1.9,0,1,1,3.79,0" transform="translate(-462.181 0)"/>
      <path id="パス_9996" data-name="パス 9996" d="M720.225,35.908c0,1.624.025,1.87,1.895,1.969.172.024.2.049.2.221s-.025.2-.2.2c-1.058-.049-2.387-.074-3.617-.074-1.083,0-2.067.025-3.126.074-.172,0-.2-.025-.2-.2s.025-.221.2-.221c1.674-.1,1.747-.345,1.747-1.969V22.422c0-.64-.344-.985-.812-.985l-1.083.025c-.2,0-.222-.025-.222-.2s.025-.2.222-.221c1.4-.172,3.47-.541,4.725-.812.2,0,.3.074.3.246l-.025,1.772a3.437,3.437,0,0,1,3.224-2.018c3.076,0,5.34,2.461,5.34,6.226,0,3.79-2.461,6.4-5.537,6.4a3.115,3.115,0,0,1-3.027-1.722Zm.344-12.92a12,12,0,0,0-.394,3.543,12.617,12.617,0,0,0,.394,3.765c.394,1.279,1.107,1.895,2.067,1.895,1.575,0,2.51-1.87,2.51-5.66,0-3.691-.886-5.463-2.461-5.463-.96,0-1.723.689-2.117,1.92" transform="translate(-480.197 -13.588)"/>
      <path id="パス_9997" data-name="パス 9997" d="M665.63,61.9a1.61,1.61,0,1,1-1.61-1.61,1.61,1.61,0,0,1,1.61,1.61" transform="translate(-444.872 -40.49)"/>
    </g>
  </g>
</svg>
