<?xml version="1.0" encoding="utf-8"?>
<!-- Generator: Adobe Illustrator 27.8.1, SVG Export Plug-In . SVG Version: 6.00 Build 0)  -->
<svg version="1.1" id="レイヤー_1" xmlns="http://www.w3.org/2000/svg" xmlns:xlink="http://www.w3.org/1999/xlink" x="0px"
	 y="0px" viewBox="0 0 587.2 666.9" style="enable-background:new 0 0 587.2 666.9;" xml:space="preserve">
<style type="text/css">
	.st0{fill:none;stroke:#040000;stroke-miterlimit:10;}
	.st1{fill:#080707;}
	.st2{fill:#951C5B;}
	.st3{fill:#F2E634;}
	.st4{fill:#32A2D3;}
	.st5{fill:#7E7E7F;}
</style>
<g>
	<g>
		<path class="st1" d="M194.9,665.5h-2.5c-0.4-1.8-1-3.3-1.9-4.7c-1.4,1.6-2.9,3-4.7,4.2c-1.8,1.2-4.2,1.7-7.2,1.7
			c-3.3,0-6.4-0.9-9.2-2.7c-2.8-1.8-5.1-4.3-6.8-7.6s-2.5-6.9-2.5-11c0-2.9,0.5-5.7,1.4-8.3c0.9-2.6,2.2-4.9,3.9-6.9
			c1.7-2,3.7-3.6,6-4.7c2.3-1.1,4.9-1.7,7.7-1.7c4.6,0,8.4,1.7,11.4,5.1c0.4-0.9,0.8-2.1,1.2-3.8h2.4l0.4,15.3H192
			c-0.5-2.6-1.3-4.9-2.5-6.9c-1.2-2-2.7-3.6-4.4-4.6c-1.7-1.1-3.5-1.6-5.3-1.6c-2.1,0-3.9,0.6-5.6,1.9c-1.6,1.3-2.9,3.2-3.9,5.8
			c-0.9,2.6-1.4,5.9-1.4,9.8c0,3.8,0.4,6.9,1.2,9.5c0.8,2.5,1.7,4.4,2.9,5.7c1.1,1.3,2.3,2.2,3.5,2.6c1.2,0.5,2.2,0.7,3.3,0.7
			c2.2,0,4.2-0.7,6-2c1.8-1.3,3.2-3,4.4-5.1c1.1-2.1,1.9-4.1,2.3-6.1h2.6V665.5z"/>
		<path class="st1" d="M228.1,652.5h-16.7c0,0.4,0.1,1.2,0.2,2.5c0.1,1.3,0.3,2.6,0.8,3.9s1.2,2.4,2.2,3.3c1,0.9,2.4,1.4,4.2,1.4
			c1,0,2.1-0.3,3.5-0.8c1.4-0.6,2.5-1.6,3.5-3.2l2.1,1.6c-2.1,3.9-5.5,5.8-10.2,5.8c-2.1,0-4-0.3-5.7-1c-1.7-0.7-3.2-1.6-4.4-2.8
			c-1.2-1.2-2.1-2.6-2.7-4.2c-0.6-1.6-0.9-3.4-0.9-5.3c0-2.5,0.5-4.7,1.6-6.8c1.1-2.1,2.6-3.8,4.5-5c2-1.2,4.2-1.9,6.8-1.9
			c2.5,0,4.6,0.6,6.3,1.8c1.7,1.2,3,2.8,3.8,4.7C227.7,648.3,228.1,650.3,228.1,652.5z M221.4,649.6c0-4.6-1.6-7-4.9-7
			c-1.6,0-2.8,0.6-3.6,1.9c-0.8,1.3-1.3,3-1.4,5H221.4z"/>
		<path class="st1" d="M259.7,644.7c0,1.2-0.3,2.1-1,2.8c-0.6,0.7-1.4,1-2.3,1c-1,0-1.9-0.6-2.7-1.7c-0.4-0.5-0.7-0.9-0.9-1.1
			c-0.2-0.2-0.6-0.3-1-0.3c-1.4,0-2.5,0.9-3.3,2.6c-0.8,1.7-1.2,3.5-1.2,5.4v5.3c0,1.7,0.2,2.9,0.6,3.5c0.4,0.6,1.4,0.9,3.1,0.9h1.4
			v2.8h-16.8v-2.8h1.4c1.5,0,2.4-0.3,2.8-1c0.3-0.7,0.5-1.8,0.5-3.5v-8.9c0-1.4-0.1-2.3-0.4-2.9c-0.2-0.6-0.7-1-1.3-1.2
			c-0.6-0.2-1.6-0.3-3-0.3v-2.8l10.6-2.6c0.3,1,0.5,3.3,0.8,6.6c0.5-1.2,1.2-2.3,2-3.3c0.8-1,1.7-1.8,2.8-2.4c1-0.6,2.1-0.9,3.1-0.9
			c1.5,0,2.7,0.5,3.5,1.4S259.7,643.3,259.7,644.7z"/>
		<path class="st1" d="M285.4,660.5c-1,2.3-2.1,4-3.4,5c-1.3,1-2.8,1.5-4.6,1.5c-2.1,0-3.7-0.5-4.7-1.5c-1-1-1.6-2.1-1.9-3.3
			c-0.2-1.2-0.4-2.6-0.4-4.1v-14.4h-4.1v-2.8c1.7,0,3.2-0.4,4.5-1.1c1.3-0.7,2.3-1.7,3-3c0.7-1.2,1.2-2.6,1.4-4h2.2v8.1h7.7v2.8
			h-7.7v14.6c0,1.8,0.1,3.1,0.3,3.8c0.2,0.8,0.7,1.2,1.5,1.2c0.9,0,1.6-0.4,2.1-1.1c0.6-0.8,1.1-1.7,1.6-2.9L285.4,660.5z"/>
		<path class="st1" d="M308.2,665.9h-14.7v-2.8h0.8c1,0,1.8-0.2,2.3-0.5c0.5-0.3,0.8-0.8,0.9-1.4c0.1-0.6,0.2-1.5,0.2-2.6v-9.1
			c0-1.3-0.1-2.2-0.2-2.7c-0.1-0.5-0.5-0.9-1.1-1.2c-0.6-0.2-1.5-0.4-2.9-0.4v-2.8l11.1-2.6v18.8c0,1.7,0.2,2.9,0.6,3.5
			c0.4,0.6,1.4,0.9,3,0.9V665.9z M305.1,627.9c0,1.2-0.4,2.3-1.2,3.1c-0.8,0.9-1.7,1.3-2.8,1.3c-1.1,0-2-0.4-2.8-1.3
			c-0.8-0.9-1.2-1.9-1.2-3.1c0-1.2,0.4-2.3,1.2-3.1c0.8-0.9,1.7-1.3,2.8-1.3c1.1,0,2,0.4,2.8,1.3
			C304.7,625.6,305.1,626.6,305.1,627.9z"/>
		<path class="st1" d="M340.5,629.8c0,1.1-0.4,2-1.1,2.7c-0.7,0.7-1.5,1.1-2.3,1.1c-1.1,0-1.9-0.4-2.4-1.3c-0.5-0.8-0.9-1.9-1.2-3.2
			c-0.4-1.7-1.3-2.5-2.6-2.5c-1.2,0-2,0.5-2.3,1.5c-0.3,1-0.4,2.6-0.4,4.7v8.1h5.5v2.8h-5.5v15c0,1.2,0.1,2.1,0.2,2.7
			c0.1,0.6,0.4,1,0.9,1.3c0.5,0.3,1.2,0.5,2.3,0.5h1v2.8h-15.9v-2.8h1.2c1,0,1.7-0.1,2.2-0.4c0.5-0.3,0.8-0.7,0.9-1.4
			c0.1-0.6,0.2-1.5,0.2-2.7v-15h-4.6v-2.8h4.6v-3.6c0-1.2,0.1-2.4,0.2-3.6c0.1-1.2,0.5-2.4,1-3.7c0.7-1.6,1.5-2.8,2.6-3.7
			c1.1-0.9,2.3-1.6,3.6-2c1.3-0.4,2.6-0.6,3.8-0.6c2.1,0,3.7,0.3,4.9,1.1c1.2,0.7,2,1.5,2.5,2.5S340.5,629,340.5,629.8z"/>
		<path class="st1" d="M359,665.9h-14.7v-2.8h0.8c1,0,1.8-0.2,2.3-0.5c0.5-0.3,0.8-0.8,0.9-1.4c0.1-0.6,0.2-1.5,0.2-2.6v-9.1
			c0-1.3-0.1-2.2-0.2-2.7s-0.5-0.9-1.1-1.2c-0.6-0.2-1.5-0.4-2.9-0.4v-2.8l11.1-2.6v18.8c0,1.7,0.2,2.9,0.6,3.5
			c0.4,0.6,1.4,0.9,3,0.9V665.9z M355.9,627.9c0,1.2-0.4,2.3-1.2,3.1c-0.8,0.9-1.7,1.3-2.8,1.3c-1.1,0-2-0.4-2.8-1.3
			c-0.8-0.9-1.2-1.9-1.2-3.1c0-1.2,0.4-2.3,1.2-3.1c0.8-0.9,1.7-1.3,2.8-1.3c1.1,0,2,0.4,2.8,1.3
			C355.5,625.6,355.9,626.6,355.9,627.9z"/>
		<path class="st1" d="M389.7,652.5h-16.7c0,0.4,0.1,1.2,0.1,2.5c0.1,1.3,0.3,2.6,0.8,3.9c0.4,1.3,1.2,2.4,2.2,3.3
			c1,0.9,2.4,1.4,4.2,1.4c1,0,2.1-0.3,3.5-0.8c1.4-0.6,2.5-1.6,3.5-3.2l2.1,1.6c-2.1,3.9-5.5,5.8-10.2,5.8c-2.1,0-4-0.3-5.7-1
			c-1.7-0.7-3.2-1.6-4.4-2.8c-1.2-1.2-2.1-2.6-2.7-4.2c-0.6-1.6-0.9-3.4-0.9-5.3c0-2.5,0.5-4.7,1.6-6.8c1.1-2.1,2.6-3.8,4.5-5
			c2-1.2,4.2-1.9,6.7-1.9c2.5,0,4.6,0.6,6.3,1.8c1.7,1.2,3,2.8,3.8,4.7C389.3,648.3,389.7,650.3,389.7,652.5z M383,649.6
			c0-4.6-1.6-7-4.9-7c-1.6,0-2.8,0.6-3.6,1.9c-0.8,1.3-1.3,3-1.4,5H383z"/>
		<path class="st1" d="M427,665.5c-3.8,0.2-7.3,0.6-10.5,1.4c-0.3-0.6-0.4-1.7-0.5-3.2c-2.3,2.1-4.9,3.2-7.6,3.2
			c-2.1,0-4.1-0.6-5.9-1.9c-1.8-1.2-3.3-2.9-4.3-5.1s-1.6-4.5-1.6-7c0-1.6,0.2-3.1,0.7-4.7c0.5-1.5,1.2-3,2.2-4.3
			c1-1.3,2.2-2.3,3.7-3c1.5-0.7,3.2-1.1,5.1-1.1c1.4,0,2.6,0.2,3.6,0.6c1,0.4,1.8,0.8,2.4,1.3c0.6,0.5,1.2,1.1,1.8,1.8v-10
			c0-1.4-0.1-2.3-0.3-2.9c-0.2-0.6-0.6-1-1.1-1.1c-0.6-0.2-1.4-0.3-2.7-0.3v-2.8l11.1-2.6V658c0,1.5,0.1,2.5,0.2,3.1
			c0.1,0.6,0.4,1,1,1.2c0.5,0.3,1.5,0.4,2.8,0.5V665.5z M416,659.8v-12.4c-0.8-1-1.7-2-2.7-2.8c-1-0.9-2.3-1.3-3.7-1.3
			c-0.9,0-1.7,0.3-2.5,0.8c-0.8,0.6-1.4,1.3-1.9,2.1c-0.8,1.4-1.2,3.8-1.2,7.1c0,3.4,0.6,5.9,1.7,7.6c1.1,1.7,2.5,2.6,4.2,2.6
			c1.2,0,2.3-0.3,3.4-1C414.4,661.8,415.3,660.9,416,659.8z"/>
	</g>
	<path class="st1" d="M321.9,79.4c2.1,1.3-1.2,3.1-4.7,2.6c-7.8-1.1-19-2.9-32-5.3c-25.1-4.7-14.1-17.4,4.3-12
		C303.4,68.7,314,74.6,321.9,79.4z"/>
	<path class="st1" d="M322.6,55.7c0.8,3.1-2.8,5.3-5.2,3.2c-5.2-4.6-12.6-11.5-21.1-20.3c-16.2-16.9,0.2-36.5,10.8-20.6
		C315.2,30.1,319.6,44.4,322.6,55.7z"/>
	<g id="XMLID_00000140720391205841863470000011494836285296347059_">
		<path class="st1" d="M397,160.2c-6.3-25-19.7-40-34.8-44.3c-1.3-0.4-2.5-0.1-2.2,1.2c0.7,2.5,1.3,5.3,1.3,6.5
			c0.8,7,0.5,16.2-3.1,26.9c0,0.1-0.1,0.2-0.1,0.3c-0.2,0.6-0.4,1.2-0.6,1.8c-0.4,1.3-0.9,3.1-1.1,5c-0.1,5.1,3.7,6.1,5.7,6.3l0,0
			c0,0,0.4,0,0.9,0c0.2,0,0.4,0,0.6,0.1c0,0,0.1,0,0.1,0c1.2,0.2,2.7,0.9,3.6,2.5c0,0.1,0.1,0.1,0.1,0.2c0,0,0,0,0,0.1
			c0,0,0,0.1,0,0.1c0.4,1,0.7,2,0.8,3c0.1,1.1,0,2.2-0.4,3.1c-0.1,0.1-0.1,0.3-0.2,0.4c-0.1,0.2-0.2,0.3-0.3,0.5
			c-0.2,0.2-0.3,0.4-0.5,0.6c0,0-0.1,0.1-0.1,0.1c-0.1,0.1-0.2,0.1-0.3,0.2c-0.2,0.1-0.4,0.3-0.7,0.4c0,0-0.2,6.3,5,7.3c0,0,0,0,0,0
			c0.9,0.2,1.3,1.1,0.9,1.9c-0.7,1.2-1.2,2.9-0.4,5.4c0.2,0.5,0.3,0.9,0.6,1.4c0,0,1.3,3,4.1,2.6c2.8-0.4,2.8-2.8,3.9,4.2
			c0,0,0,0,0,0c0.2,2.8,0.5,7,1.6,11.1c0,0.2,0.1,0.3,0.2,0.4C388.2,219,405.8,195.2,397,160.2z"/>
	</g>
	<path class="st1" d="M156.4,320.4c0,0-29.7-19.9,1.5-82.3s-10.5-65.9-29.5-50.4S95,290.4,156.4,320.4z"/>
	<path class="st1" d="M263.9,382.2c34.3,28.2,131.7-36.2,179.9-106.3c9.9-14.4,17.7-29.1,22.5-43.2c2.6-7.7,4.5-15.2,4.9-22.5
		c0.3-4.3,1.7-5,2.5-0.6c27.5,148.9-50,304.3-178.3,302.6c-109.8-1.5-184.4-98.9-184.1-203.6c0-0.9,1-1.3,1.6-0.7
		c65.1,71.5,187.6,34.4,208.3-60.6c0.2-1,1.6-1,1.8,0C332.1,300.5,306.4,356.5,263.9,382.2"/>
	<path class="st1" d="M325.1,224.7c15.7,21.2,17.1,49.3,6.7,77c-0.6,2-1.3,3.9-2.1,5.8c-4.9,12.7-4.9,14.5-11.3,22.6
		c-0.7,0.9,0.3,2.2,1.2,1.5c7.4-5.9,7.6-5.9,14.9-14.8c11.4-13.8,20.4-30.1,26.2-48.4c7.5-23.8,6.3-48,2.1-70.9
		c-5.6-23.1-36.1-29.5-44.5-4.6C315.4,202.4,318.2,215,325.1,224.7z"/>
	<path class="st1" d="M156.5,268.1c0,0,17.6-25.1,43.6-36.8s7.4-40.2-19.4-3.3S156.5,268.1,156.5,268.1z"/>
	<path class="st1" d="M455.1,212.8c0,0,17.3-35.8,14.2-72.7s41-33.8,16,19.9C460.3,213.7,455.1,212.8,455.1,212.8z"/>
	<path class="st1" d="M334,111.3c2.2-12,14.9-66,57.7-27.5c19.9,17.9,27.5,51.2,26.8,77.1c-0.7,25.3-8.2,52-13.6,72.4
		c-6.6,25-16.7,49.5-31.1,70.3c-9.3,13.5-20.5,25.1-32.4,35.2c-1,0.8-0.2,2.6,0.9,1.9c4.2-2.6,7.9-5.2,12-8.2
		c8.3-6.1,16.4-12.8,23.8-20.4c17.6-17.8,30.6-39.4,41.9-63.1c12-25.2,21.8-51.9,27.9-79.5c4.7-21.3,7.3-43,7-64.6
		c-0.8-52.2-13.4-85.7-47.8-101.4c-46.4-21.1-77,55.8-73.6,107.7c0.1,0.9,0.2,1.5,0.4,0.7C334.1,111.2,334,111.3,334,111.3z"/>
	<g>
		<g>
			<path class="st1" d="M51.9,589.8l-24.2-0.1l0-3.5c2,0,3.5-0.1,4.5-0.4c0.9-0.3,1.4-1,1.4-2.1c0-0.8-0.1-1.5-0.4-2.3l-2.4-6.1
				l-16.6-0.1l-1.3,3.3c-0.7,1.9-1.1,3.2-1.1,4c0,1.5,0.6,2.5,1.7,2.9c1.2,0.4,2.5,0.6,4.1,0.6l0,3.5L0,589.5l0-3.5
				c1.4,0,2.6-0.3,3.6-0.8s1.9-1.5,2.8-3c0.9-1.5,1.9-3.5,2.9-6.2l15-38.6l3.6,0l15.4,40c1.1,2.8,1.9,4.7,2.5,5.7
				c0.5,1,1.3,1.8,2.2,2.3c0.9,0.5,2.2,0.8,3.9,0.8L51.9,589.8z M29.5,571.6l-7-17.9l-6.8,17.8L29.5,571.6z"/>
			<path class="st1" d="M91.6,561.1c0,0.9-0.3,1.6-0.7,2.2c-0.5,0.6-1.1,0.8-1.7,0.8c-0.8,0-1.6-0.3-2.4-1c-0.1-0.1-0.3-0.2-0.6-0.5
				c-0.3-0.2-0.5-0.4-0.8-0.6c-0.2-0.1-0.4-0.2-0.6-0.2c-0.7,0-1.3,0.2-1.9,0.7c0.9,1.1,1.5,2.1,2,3.1c0.5,1,0.7,2.2,0.7,3.7
				c0,2-0.5,3.7-1.4,5.1c-0.9,1.3-2.1,2.4-3.6,3.1c-1.5,0.7-3,1.2-4.6,1.6c-1.6,0.3-3.5,0.6-6,0.9c-6,0.7-8.9,1.9-8.9,3.6
				c0,0.7,0.4,1.2,1.3,1.5c0.9,0.3,2.2,0.4,4,0.4l5.7,0c1.8,0,3.6,0.1,5.3,0.3s3.4,0.6,5.2,1.3c1.7,0.7,3.2,1.8,4.5,3.3
				c1.2,1.5,1.8,3.5,1.8,6c0,1.8-0.6,3.7-1.7,5.5c-1.1,1.9-3.1,3.4-6,4.7c-2.9,1.3-6.8,1.9-11.6,1.9c-3.8,0-7.6-0.5-11.3-1.6
				c-3.7-1-5.6-3.3-5.6-6.8c0-1.2,0.4-2.3,1.1-3.3c0.7-1,1.8-1.5,3.3-1.5c1.2,0,2.1,0.2,2.8,0.7c-0.6,0.9-0.8,1.8-0.8,2.8
				c0,1.6,0.9,3.1,2.9,4.3c1.9,1.2,4.8,1.9,8.7,1.9c3.9,0,7-0.5,9.3-1.6c2.3-1.1,3.4-2.6,3.4-4.4c0-1.3-0.5-2.3-1.4-3
				c-1-0.7-2.4-1.1-4.2-1.3c-1.8-0.2-4.6-0.3-8.4-0.4c-4.6-0.1-8.2-0.6-10.9-1.6c-2.6-1-4-3-3.9-6.1c0-2.6,1-4.5,3-5.7
				c2-1.2,4.4-2.1,7.3-2.7c-6.7-1.3-10.1-4.5-10.1-9.6c0-1.6,0.5-3.3,1.4-5.1c0.9-1.7,2.5-3.2,4.8-4.4c2.3-1.2,5.4-1.8,9.3-1.8
				c5,0,8.8,1.2,11.4,3.5c1.6-2.3,3.6-3.4,6.1-3.4c1.3,0,2.3,0.3,3,1C91.2,559.5,91.6,560.3,91.6,561.1z M76,569
				c0-2.1-0.5-4-1.4-5.6c-0.9-1.6-2.4-2.4-4.5-2.4c-2.2,0-3.8,0.7-4.7,2.2c-0.9,1.5-1.4,3.2-1.4,5.3c0,2.1,0.4,4,1.2,5.7
				c0.8,1.7,2.4,2.6,4.8,2.6c1.8,0,3.2-0.7,4.3-2C75.4,573.4,76,571.5,76,569z"/>
			<path class="st1" d="M113.8,590.2L93.3,590l0-3.5l1.1,0c1.5,0,2.5-0.2,3.2-0.6c0.7-0.4,1.1-1,1.2-1.7c0.2-0.7,0.2-1.8,0.2-3.2
				l0.1-11.2c0-1.6-0.1-2.7-0.3-3.3c-0.2-0.7-0.7-1.1-1.5-1.4c-0.8-0.3-2.1-0.5-4-0.5l0-3.5l15.5-3.2l-0.1,23.2
				c0,2.1,0.2,3.6,0.8,4.4c0.5,0.8,1.9,1.2,4.2,1.2L113.8,590.2z M109.8,543.1c0,1.5-0.6,2.8-1.6,3.9c-1.1,1.1-2.4,1.6-3.9,1.6
				c-1.5,0-2.8-0.6-3.9-1.7c-1.1-1.1-1.6-2.4-1.6-3.8c0-1.5,0.6-2.8,1.6-3.9c1.1-1.1,2.4-1.6,3.9-1.6c1.5,0,2.8,0.5,3.9,1.6
				C109.3,540.3,109.8,541.6,109.8,543.1z"/>
			<path class="st1" d="M160.3,590.4l-19.6-0.1l0-3.5c1.5,0,2.6-0.2,3.2-0.6s1-1,1.2-1.7c0.2-0.8,0.2-2,0.2-3.7l0.1-10.7
				c0-2.1-0.3-3.8-0.9-5.1c-0.6-1.3-1.9-1.9-3.8-1.9c-2.6,0-4.6,1-5.9,3c-1.3,2-2,4.4-2,7l0,8.5c0,2,0.3,3.4,0.8,4.1
				c0.6,0.7,1.8,1.1,3.7,1.1l0,3.5l-20-0.1l0-3.5c1.6,0,2.8-0.1,3.6-0.4c0.8-0.3,1.3-0.8,1.6-1.5c0.3-0.7,0.4-1.9,0.4-3.5L123,569
				c0-1.8-0.3-2.9-1-3.5c-0.7-0.5-2.2-0.8-4.5-0.8l0-3.5l14.7-3.2c0.2,1.5,0.3,2.8,0.3,4.1c0,0.3,0,0.6,0,0.9c0,0.2,0,0.5,0,0.8
				c1.6-1.7,3.3-3,5-4.1c1.7-1.1,3.9-1.6,6.4-1.6c2.2,0,4.1,0.4,5.8,1.2c1.7,0.8,3.1,2,4,3.6c1,1.6,1.5,3.5,1.4,5.8l-0.1,12.7
				c0,2.1,0.3,3.6,0.8,4.4c0.6,0.8,2,1.2,4.4,1.2L160.3,590.4z"/>
			<path class="st1" d="M202.2,561.8c0,0.9-0.3,1.6-0.7,2.2c-0.5,0.6-1.1,0.8-1.7,0.8c-0.8,0-1.6-0.3-2.4-1
				c-0.1-0.1-0.3-0.2-0.6-0.5c-0.3-0.2-0.5-0.4-0.8-0.6c-0.2-0.1-0.4-0.2-0.6-0.2c-0.7,0-1.3,0.2-1.9,0.7c0.9,1.1,1.5,2.1,2,3.1
				c0.5,1,0.7,2.2,0.7,3.7c0,2-0.5,3.7-1.4,5.1c-0.9,1.3-2.1,2.4-3.6,3.1c-1.5,0.7-3,1.2-4.6,1.6c-1.6,0.3-3.5,0.6-6,0.9
				c-6,0.7-8.9,1.9-8.9,3.6c0,0.7,0.4,1.2,1.3,1.5c0.9,0.3,2.2,0.4,4,0.4l5.7,0c1.8,0,3.6,0.1,5.3,0.3c1.7,0.2,3.4,0.6,5.2,1.3
				s3.2,1.8,4.5,3.3c1.2,1.5,1.8,3.5,1.8,6c0,1.8-0.6,3.7-1.7,5.5c-1.1,1.9-3.1,3.4-6,4.7c-2.9,1.3-6.8,1.9-11.6,1.9
				c-3.8,0-7.6-0.5-11.3-1.6c-3.7-1-5.6-3.3-5.6-6.8c0-1.2,0.4-2.3,1.1-3.3c0.7-1,1.8-1.5,3.3-1.5c1.2,0,2.1,0.2,2.8,0.7
				c-0.6,0.9-0.8,1.8-0.8,2.8c0,1.6,0.9,3.1,2.9,4.3c1.9,1.2,4.8,1.9,8.7,1.9c3.9,0,7-0.5,9.3-1.6c2.3-1.1,3.4-2.6,3.4-4.4
				c0-1.3-0.5-2.3-1.4-3c-1-0.7-2.4-1.1-4.2-1.3c-1.8-0.2-4.6-0.3-8.4-0.4c-4.6-0.1-8.2-0.6-10.9-1.6c-2.6-1-4-3-3.9-6.1
				c0-2.6,1-4.5,3-5.7c2-1.2,4.4-2.1,7.3-2.7c-6.7-1.3-10.1-4.5-10.1-9.6c0-1.6,0.5-3.3,1.4-5.1c0.9-1.7,2.5-3.2,4.8-4.4
				c2.3-1.2,5.4-1.8,9.3-1.8c5,0,8.8,1.2,11.4,3.5c1.6-2.3,3.6-3.4,6.1-3.4c1.3,0,2.3,0.3,3,1C201.9,560.1,202.2,560.9,202.2,561.8z
				 M186.7,569.6c0-2.1-0.5-4-1.4-5.6c-1-1.6-2.4-2.4-4.5-2.4c-2.2,0-3.8,0.7-4.7,2.2c-0.9,1.5-1.4,3.2-1.4,5.3c0,2.1,0.4,4,1.2,5.7
				c0.8,1.7,2.4,2.6,4.8,2.6c1.8,0,3.2-0.7,4.3-2C186.1,574,186.7,572.1,186.7,569.6z"/>
			<path class="st1" d="M273.9,590.5l-3.6,0c-0.5-2.2-1.4-4.1-2.6-5.8c-1.9,2-4.1,3.7-6.6,5.1c-2.5,1.4-5.8,2.1-10,2.1
				c-4.6,0-8.9-1.2-12.8-3.4s-7.1-5.4-9.4-9.4s-3.5-8.6-3.4-13.6c0-3.6,0.7-7,2-10.2c1.3-3.2,3.1-6.1,5.5-8.6
				c2.4-2.5,5.2-4.4,8.5-5.8c3.3-1.4,6.8-2.1,10.7-2.1c6.4,0,11.7,2.2,15.8,6.4c0.6-1.1,1.1-2.7,1.7-4.7l3.4,0l0.5,18.9l-3.6,0
				c-0.6-3.2-1.8-6.1-3.5-8.6c-1.7-2.5-3.7-4.4-6.1-5.8c-2.3-1.3-4.8-2-7.4-2c-2.9,0-5.5,0.8-7.8,2.3c-2.3,1.6-4.1,4-5.4,7.2
				c-1.3,3.2-2,7.2-2,12c0,4.7,0.5,8.6,1.6,11.7c1.1,3.1,2.4,5.5,4,7.1c1.6,1.6,3.2,2.7,4.8,3.3c1.6,0.6,3.1,0.9,4.5,0.9
				c3.1,0,5.9-0.8,8.4-2.4s4.5-3.7,6.1-6.3c1.6-2.5,2.7-5,3.2-7.5l3.6,0L273.9,590.5z"/>
			<path class="st1" d="M320.8,583.4c0,1.9-0.4,3.5-1.2,4.9c-0.8,1.3-1.8,2.3-3.2,3c-1.3,0.6-2.8,0.9-4.5,0.9
				c-2.1,0-3.9-0.5-5.3-1.5c-1.4-1-2.2-2.2-2.5-3.6c-4.2,3.4-8.5,5-12.7,5c-2.7,0-4.9-0.7-6.7-2c-1.7-1.3-2.6-3.1-2.6-5.3
				c0-1.8,0.5-3.4,1.4-4.8s2.3-2.7,4.1-3.9c1.8-1.1,4-2.1,6.5-3c2.5-0.9,5.6-1.8,9.4-2.7l0-2.2c0-1.8-0.4-3.2-1.2-4.2
				c-0.8-1-2.4-1.5-4.7-1.6c-1.9,0-3.3,0.4-4.2,1.2c-0.9,0.8-1.4,2-1.7,3.7c-0.2,1.2-0.6,2.1-1.1,2.8c-0.5,0.7-1.7,1.1-3.4,1.1
				c-1.1,0-2-0.3-2.8-0.9c-0.8-0.6-1.2-1.5-1.2-2.7c0-2.3,1.3-4.4,3.9-6.1c2.6-1.7,6.5-2.6,11.7-2.5c5.5,0,9.4,1,11.4,2.9
				c2.1,1.9,3.1,4.4,3.1,7.5l-0.1,11.9c0,1.5,0,2.6,0.1,3.3c0.1,0.7,0.3,1.2,0.6,1.6c0.3,0.4,0.9,0.6,1.6,0.6c0.7,0,1.2-0.3,1.7-1
				c0.5-0.7,0.7-1.5,0.8-2.5L320.8,583.4z M303.5,583.6l0.1-9.4c-4.8,1.5-7.9,2.9-9.2,4.4c-1.3,1.4-2,2.9-2,4.2c0,1.2,0.3,2.1,1,2.8
				c0.7,0.7,1.7,1.1,3,1.1c1.4,0,2.6-0.3,3.7-0.8S302.3,584.5,303.5,583.6z"/>
			<path class="st1" d="M355.1,565.3c0,1.5-0.5,2.6-1.4,3.5c-0.9,0.8-2,1.3-3.2,1.2c-1.4,0-2.7-0.7-3.8-2.1
				c-0.5-0.6-0.9-1.1-1.2-1.4c-0.3-0.3-0.8-0.4-1.4-0.4c-2,0-3.5,1-4.6,3.2c-1.1,2.1-1.7,4.3-1.7,6.6l0,6.6c0,2.1,0.2,3.6,0.8,4.4
				c0.5,0.8,2,1.2,4.3,1.2l2,0l0,3.5l-23.5-0.1l0-3.5l2,0c2.1,0,3.4-0.4,3.9-1.2c0.5-0.8,0.7-2.2,0.7-4.3l0.1-11
				c0-1.7-0.2-2.9-0.5-3.6c-0.3-0.7-0.9-1.2-1.8-1.5c-0.9-0.2-2.3-0.4-4.2-0.4l0-3.5l14.8-3.2c0.4,1.3,0.7,4,1,8.2
				c0.7-1.5,1.6-2.8,2.8-4.1c1.2-1.2,2.4-2.2,3.9-3c1.4-0.7,2.9-1.1,4.4-1.1c2.1,0,3.7,0.6,4.9,1.8
				C354.5,562.2,355.1,563.6,355.1,565.3z"/>
			<path class="st1" d="M388.5,575.1l-23.3-0.1c0,0.5,0.1,1.5,0.2,3.1c0.1,1.6,0.4,3.2,1,4.8c0.6,1.6,1.6,3,3,4.2
				c1.4,1.1,3.4,1.7,5.8,1.7c1.3,0,3-0.3,4.8-1c1.9-0.7,3.5-2,4.9-3.9l2.9,2c-3,4.7-7.7,7.1-14.2,7.1c-2.9,0-5.5-0.4-7.9-1.3
				c-2.4-0.8-4.4-2-6-3.5c-1.7-1.5-2.9-3.3-3.8-5.3c-0.9-2-1.3-4.2-1.3-6.5c0-3,0.8-5.9,2.3-8.5c1.5-2.6,3.6-4.6,6.4-6.2
				s5.9-2.3,9.4-2.3c3.5,0,6.4,0.8,8.7,2.3c2.4,1.5,4.1,3.4,5.2,5.8C387.9,569.9,388.5,572.4,388.5,575.1z M379.1,571.6
				c0-5.7-2.2-8.6-6.8-8.7c-2.2,0-3.9,0.8-5.1,2.4c-1.2,1.6-1.8,3.7-2,6.2L379.1,571.6z"/>
			<path class="st1" d="M485.5,544.5c-1.8,0.1-3.2,0.4-4,0.9c-0.8,0.4-1.5,1.2-2,2.4c-0.5,1.1-1.2,3.1-2,6l-10.9,39.4l-5.3,0
				l-12.9-36.9l-12.5,36.8l-5.2,0l-11.6-40.6c-0.7-2.4-1.3-4.2-1.9-5.4c-0.6-1.2-1.3-1.9-2.1-2.3c-0.8-0.4-1.9-0.6-3.4-0.6l0-3.5
				l22.2,0.1l0,3.5c-1.7,0-3,0.1-3.8,0.4c-0.8,0.3-1.2,1-1.2,2.2c0,0.8,0.3,2.2,0.8,4.1l7.3,25.6l12.2-35.8l5,0l12.5,35.9l6.6-24
				c0.5-1.6,0.7-3,0.7-4c0-1.8-0.6-3-1.7-3.5c-1.1-0.5-2.6-0.8-4.4-0.9l0-3.5l17.6,0.1L485.5,544.5z"/>
			<path class="st1" d="M505.5,592.4l-20.5-0.1l0-3.5l1.1,0c1.5,0,2.5-0.2,3.2-0.6c0.7-0.4,1.1-1,1.2-1.7c0.2-0.7,0.2-1.8,0.2-3.2
				l0.1-11.2c0-1.6-0.1-2.7-0.3-3.3c-0.2-0.7-0.7-1.1-1.5-1.4c-0.8-0.3-2.1-0.5-4-0.5l0-3.5l15.5-3.2l-0.1,23.2
				c0,2.1,0.2,3.6,0.8,4.4c0.5,0.8,1.9,1.2,4.2,1.2L505.5,592.4z M501.5,545.4c0,1.5-0.6,2.8-1.6,3.9c-1.1,1.1-2.4,1.6-3.9,1.6
				c-1.5,0-2.8-0.6-3.9-1.7s-1.6-2.4-1.6-3.8c0-1.5,0.6-2.8,1.6-3.9c1.1-1.1,2.4-1.6,3.9-1.6c1.5,0,2.8,0.5,3.9,1.6
				C501,542.5,501.5,543.8,501.5,545.4z"/>
			<path class="st1" d="M552,592.7l-19.6-0.1l0-3.5c1.5,0,2.6-0.2,3.2-0.6c0.6-0.4,1-1,1.2-1.7c0.2-0.8,0.2-2,0.2-3.7l0.1-10.7
				c0-2.1-0.3-3.8-0.9-5.1s-1.9-1.9-3.8-1.9c-2.6,0-4.6,1-5.9,3c-1.3,2-2,4.4-2,7l0,8.5c0,2,0.3,3.4,0.8,4.1
				c0.6,0.7,1.8,1.1,3.7,1.1l0,3.5l-20-0.1l0-3.5c1.6,0,2.8-0.1,3.6-0.4c0.8-0.3,1.3-0.8,1.6-1.5c0.3-0.7,0.4-1.9,0.4-3.5l0.1-12.2
				c0-1.8-0.3-2.9-1-3.5c-0.7-0.5-2.2-0.8-4.5-0.8l0-3.5l14.7-3.2c0.2,1.5,0.3,2.8,0.3,4.1c0,0.3,0,0.6,0,0.9c0,0.2,0,0.5,0,0.8
				c1.6-1.7,3.3-3,5-4.1c1.7-1.1,3.9-1.6,6.4-1.6c2.2,0,4.1,0.4,5.8,1.2c1.7,0.8,3.1,2,4,3.6c1,1.6,1.5,3.5,1.4,5.8l-0.1,12.7
				c0,2.1,0.3,3.6,0.8,4.4c0.6,0.8,2,1.2,4.4,1.2L552,592.7z"/>
			<path class="st1" d="M587.2,576.2l-23.3-0.1c0,0.5,0.1,1.5,0.2,3.1c0.1,1.6,0.4,3.2,1,4.8c0.6,1.6,1.6,3,3,4.2
				c1.4,1.1,3.4,1.7,5.8,1.7c1.3,0,3-0.3,4.8-1c1.9-0.7,3.5-2,4.9-3.9l2.9,2c-3,4.7-7.7,7.1-14.2,7.1c-2.9,0-5.5-0.4-7.9-1.3
				c-2.4-0.8-4.4-2-6-3.5c-1.7-1.5-2.9-3.3-3.8-5.3c-0.9-2-1.3-4.2-1.3-6.5c0-3,0.8-5.9,2.3-8.5c1.5-2.6,3.6-4.6,6.4-6.2
				c2.8-1.5,5.9-2.3,9.4-2.3c3.5,0,6.4,0.8,8.7,2.3c2.4,1.5,4.1,3.4,5.2,5.8C586.6,571,587.2,573.5,587.2,576.2z M577.8,572.7
				c0-5.7-2.2-8.6-6.8-8.7c-2.2,0-3.9,0.8-5.1,2.4c-1.2,1.6-1.8,3.7-2,6.2L577.8,572.7z"/>
		</g>
	</g>
</g>
</svg>
