<svg xmlns="http://www.w3.org/2000/svg" xmlns:xlink="http://www.w3.org/1999/xlink" width="94" height="106.04" viewBox="0 0 94 106.04">
  <defs>
    <clipPath id="clip-path">
      <rect id="長方形_24" data-name="長方形 24" width="94" height="106.04" fill="none"/>
    </clipPath>
  </defs>
  <g id="グループ_6882" data-name="グループ 6882" clip-path="url(#clip-path)">
    <path id="パス_9954" data-name="パス 9954" d="M231.618,645.881h-.184a1.059,1.059,0,0,0-.135-.34,1.6,1.6,0,0,1-.341.3.933.933,0,0,1-.519.126,1.207,1.207,0,0,1-.665-.2,1.4,1.4,0,0,1-.488-.549,1.7,1.7,0,0,1-.182-.794,1.816,1.816,0,0,1,.1-.6,1.57,1.57,0,0,1,.282-.5,1.33,1.33,0,0,1,.437-.34,1.247,1.247,0,0,1,.555-.124,1.052,1.052,0,0,1,.823.367,1.521,1.521,0,0,0,.084-.276h.176l.031,1.1H231.4a1.447,1.447,0,0,0-.184-.5,1.006,1.006,0,0,0-.316-.335.7.7,0,0,0-.383-.116.639.639,0,0,0-.4.138.9.9,0,0,0-.279.421,2.115,2.115,0,0,0-.1.7,2.357,2.357,0,0,0,.084.684,1.112,1.112,0,0,0,.209.412.687.687,0,0,0,.25.189.641.641,0,0,0,.235.05.7.7,0,0,0,.434-.146,1.164,1.164,0,0,0,.316-.368,1.468,1.468,0,0,0,.165-.441h.188Z" transform="translate(-192.426 -539.945)" fill="#0a090a"/>
    <path id="パス_9955" data-name="パス 9955" d="M253.154,651.06h-1.2q0,.042.011.179a1.169,1.169,0,0,0,.055.281.528.528,0,0,0,.159.242.444.444,0,0,0,.3.1.689.689,0,0,0,.251-.06.554.554,0,0,0,.255-.23l.153.117a.779.779,0,0,1-.734.417,1.1,1.1,0,0,1-.41-.073.9.9,0,0,1-.314-.2.89.89,0,0,1-.2-.307,1.047,1.047,0,0,1-.069-.38,1.086,1.086,0,0,1,.115-.495.891.891,0,0,1,.816-.5.766.766,0,0,1,.453.13.776.776,0,0,1,.273.338,1.117,1.117,0,0,1,.088.442m-.486-.2q0-.5-.352-.5a.293.293,0,0,0-.261.139.71.71,0,0,0-.1.365Z" transform="translate(-211.16 -546.066)" fill="#0a090a"/>
    <path id="パス_9956" data-name="パス 9956" d="M269.117,650.5a.283.283,0,0,1-.069.2.217.217,0,0,1-.163.074.238.238,0,0,1-.2-.124.563.563,0,0,0-.065-.079.1.1,0,0,0-.073-.024.264.264,0,0,0-.238.187.93.93,0,0,0-.085.388v.384a.53.53,0,0,0,.042.254q.042.069.222.069h.1v.2H267.38v-.2h.1c.11,0,.177-.024.2-.071a.59.59,0,0,0,.037-.252v-.645a.607.607,0,0,0-.026-.212.142.142,0,0,0-.095-.085.82.82,0,0,0-.219-.021v-.2l.764-.19a3.3,3.3,0,0,1,.055.479.968.968,0,0,1,.144-.239.771.771,0,0,1,.2-.174.432.432,0,0,1,.226-.066.33.33,0,0,1,.255.1.351.351,0,0,1,.094.247" transform="translate(-224.574 -546.066)" fill="#0a090a"/>
    <path id="パス_9957" data-name="パス 9957" d="M283.869,648.961a.867.867,0,0,1-.247.358.528.528,0,0,1-.331.108.475.475,0,0,1-.341-.106.448.448,0,0,1-.135-.238,1.571,1.571,0,0,1-.025-.3v-1.041h-.3v-.2a.634.634,0,0,0,.323-.08.592.592,0,0,0,.216-.214.784.784,0,0,0,.1-.29h.161v.584h.554v.2h-.554V648.8a1.2,1.2,0,0,0,.022.277.1.1,0,0,0,.111.085.184.184,0,0,0,.155-.083,1.187,1.187,0,0,0,.118-.207Z" transform="translate(-237.269 -543.387)" fill="#0a090a"/>
    <path id="パス_9958" data-name="パス 9958" d="M296.983,645.807h-1.064v-.2h.057a.3.3,0,0,0,.165-.035.148.148,0,0,0,.064-.1,1.124,1.124,0,0,0,.012-.188v-.656a.883.883,0,0,0-.015-.194.122.122,0,0,0-.076-.084.6.6,0,0,0-.207-.029v-.2l.8-.19v1.356a.542.542,0,0,0,.041.254q.041.069.219.068Zm-.221-2.746a.33.33,0,0,1-.083.227.259.259,0,0,1-.4,0,.327.327,0,0,1-.085-.224.332.332,0,0,1,.084-.228.264.264,0,0,1,.4,0,.335.335,0,0,1,.082.23" transform="translate(-248.544 -539.84)" fill="#0a090a"/>
    <path id="パス_9959" data-name="パス 9959" d="M309.4,643.3a.262.262,0,0,1-.077.2.235.235,0,0,1-.167.076.19.19,0,0,1-.176-.091.8.8,0,0,1-.088-.234q-.047-.181-.186-.181a.151.151,0,0,0-.163.112,1.322,1.322,0,0,0-.032.341v.583h.4v.2h-.4v1.08a1.128,1.128,0,0,0,.012.195.139.139,0,0,0,.061.095.314.314,0,0,0,.167.033h.073v.2H307.67v-.2h.088a.307.307,0,0,0,.159-.032.151.151,0,0,0,.066-.1.869.869,0,0,0,.016-.192v-1.08h-.329v-.2H308v-.259a2.147,2.147,0,0,1,.016-.262,1.016,1.016,0,0,1,.072-.264.718.718,0,0,1,.191-.269.729.729,0,0,1,.258-.143.937.937,0,0,1,.278-.043.7.7,0,0,1,.355.076.426.426,0,0,1,.227.361" transform="translate(-258.414 -539.945)" fill="#0a090a"/>
    <path id="パス_9960" data-name="パス 9960" d="M321.18,645.807h-1.063v-.2h.057a.3.3,0,0,0,.165-.035.148.148,0,0,0,.064-.1,1.12,1.12,0,0,0,.012-.188v-.656a.883.883,0,0,0-.015-.194.123.123,0,0,0-.076-.084.6.6,0,0,0-.207-.029v-.2l.8-.19v1.356a.542.542,0,0,0,.041.254c.028.046.1.068.219.068Zm-.221-2.746a.33.33,0,0,1-.083.227.26.26,0,0,1-.4,0,.327.327,0,0,1-.085-.224.332.332,0,0,1,.084-.228.264.264,0,0,1,.4,0,.335.335,0,0,1,.082.23" transform="translate(-268.869 -539.84)" fill="#0a090a"/>
    <path id="パス_9961" data-name="パス 9961" d="M331.486,651.06h-1.2c0,.028,0,.088.011.179a1.161,1.161,0,0,0,.055.281.53.53,0,0,0,.158.242.445.445,0,0,0,.3.1.686.686,0,0,0,.251-.06.556.556,0,0,0,.255-.23l.153.117a.779.779,0,0,1-.734.417,1.106,1.106,0,0,1-.41-.073.9.9,0,0,1-.314-.2.887.887,0,0,1-.2-.307,1.044,1.044,0,0,1-.068-.38,1.082,1.082,0,0,1,.115-.495.891.891,0,0,1,.816-.5.767.767,0,0,1,.453.13.779.779,0,0,1,.273.338,1.123,1.123,0,0,1,.088.442m-.486-.2q0-.5-.353-.5a.294.294,0,0,0-.261.139.713.713,0,0,0-.1.365Z" transform="translate(-276.952 -546.066)" fill="#0a090a"/>
    <path id="パス_9962" data-name="パス 9962" d="M346.507,645.885a4.239,4.239,0,0,0-.758.1.773.773,0,0,1-.035-.232.794.794,0,0,1-.55.232.742.742,0,0,1-.428-.135.947.947,0,0,1-.313-.368,1.12,1.12,0,0,1-.117-.507,1.166,1.166,0,0,1,.051-.338.95.95,0,0,1,.16-.308.773.773,0,0,1,.269-.22.817.817,0,0,1,.366-.079.716.716,0,0,1,.258.042.62.62,0,0,1,.172.1,1.254,1.254,0,0,1,.131.129v-.725a.742.742,0,0,0-.021-.212.119.119,0,0,0-.081-.082.847.847,0,0,0-.195-.022v-.2l.8-.19v2.475a1.259,1.259,0,0,0,.013.221.121.121,0,0,0,.072.089.594.594,0,0,0,.2.034Zm-.793-.417v-.895a1.113,1.113,0,0,0-.2-.206.413.413,0,0,0-.27-.093.307.307,0,0,0-.18.06.449.449,0,0,0-.135.152,1.117,1.117,0,0,0-.086.515,1.011,1.011,0,0,0,.122.552.358.358,0,0,0,.3.186.446.446,0,0,0,.245-.073.665.665,0,0,0,.2-.2" transform="translate(-289.185 -539.945)" fill="#0a090a"/>
    <path id="パス_9963" data-name="パス 9963" d="M278.727,65.85c.338.207-.19.5-.754.415-1.242-.181-3.039-.463-5.129-.855-4.015-.753-2.259-2.788.688-1.926a21.132,21.132,0,0,1,5.195,2.366" transform="translate(-227.195 -53.145)" fill="#0a090a"/>
    <path id="パス_9964" data-name="パス 9964" d="M294.8,19.127a.511.511,0,0,1-.834.511c-.833-.739-2.024-1.847-3.37-3.252-2.586-2.7.027-5.843,1.731-3.3a19.968,19.968,0,0,1,2.473,6.038" transform="translate(-243.158 -10.204)" fill="#0a090a"/>
    <path id="パス_9965" data-name="パス 9965" d="M362.987,122.873c-1-4.006-3.158-6.4-5.569-7.085-.2-.057-.4-.019-.344.185a6.344,6.344,0,0,1,.211,1.045,9.815,9.815,0,0,1-.5,4.3c-.006.017-.011.029-.017.045-.029.1-.058.2-.094.294a3.694,3.694,0,0,0-.169.8.917.917,0,0,0,.906,1.008h0a1.163,1.163,0,0,1,.14.007c.029,0,.061.008.1.014l.021,0a.81.81,0,0,1,.573.406c.005.01.012.017.017.028l.006.009c0,.007,0,.013.008.02a1.565,1.565,0,0,1,.126.481,1,1,0,0,1-.068.5.75.75,0,0,1-.035.067.649.649,0,0,1-.049.073.616.616,0,0,1-.084.092l-.015.013c-.012.009-.028.016-.04.024a.635.635,0,0,1-.11.066s-.039,1,.8,1.167h0a.2.2,0,0,1,.141.3.959.959,0,0,0-.062.858,1.526,1.526,0,0,0,.089.225.689.689,0,0,0,.658.424c.452-.056.443-.452.622.679h0a9.462,9.462,0,0,0,.258,1.776.223.223,0,0,0,.031.069c1.051,1.523,3.862-2.287,2.454-7.9" transform="translate(-299.429 -97.23)" fill="#0a090a"/>
    <path id="パス_9966" data-name="パス 9966" d="M119.13,202.449s-4.751-3.189.234-13.172-1.688-10.548-4.723-8.063-5.34,16.436,4.489,21.235" transform="translate(-94.092 -151.159)" fill="#0a090a"/>
    <path id="パス_9967" data-name="パス 9967" d="M135.774,234.768c5.492,4.518,21.077-5.8,28.8-17.021a28.745,28.745,0,0,0,3.607-6.912,14.217,14.217,0,0,0,.791-3.595c.045-.693.264-.807.4-.1,4.406,23.843-8,48.715-28.542,48.436-17.576-.239-29.521-15.83-29.467-32.587a.147.147,0,0,1,.255-.105c10.417,11.45,30.029,5.508,33.342-9.7a.146.146,0,0,1,.289.005c1.452,8.505-2.666,17.47-9.465,21.58" transform="translate(-93.527 -173.578)" fill="#0a090a"/>
    <path id="パス_9968" data-name="パス 9968" d="M318.484,184.607c2.514,3.393,2.741,7.887,1.072,12.329-.1.315-.211.623-.329.926-.792,2.029-.785,2.329-1.815,3.614-.114.143.052.348.193.236a10.747,10.747,0,0,0,2.389-2.373,23.37,23.37,0,0,0,4.2-7.747,23.135,23.135,0,0,0,.329-11.344c-.889-3.691-5.774-4.719-7.12-.732a6.106,6.106,0,0,0,1.079,5.091" transform="translate(-266.432 -148.635)" fill="#0a090a"/>
    <path id="パス_9969" data-name="パス 9969" d="M156.4,219.083a19.692,19.692,0,0,1,6.981-5.89c4.162-1.879,1.184-6.44-3.1-.526s-3.878,6.416-3.878,6.416" transform="translate(-131.355 -176.161)" fill="#0a090a"/>
    <path id="パス_9970" data-name="パス 9970" d="M455.092,131.133a25.565,25.565,0,0,0,2.279-11.637c-.493-5.908,6.56-5.406,2.554,3.189s-4.833,8.448-4.833,8.448" transform="translate(-382.235 -97.063)" fill="#0a090a"/>
    <path id="パス_9971" data-name="パス 9971" d="M333.353,17.818c.357-1.923,2.391-10.562,9.234-4.4,3.182,2.867,4.4,8.194,4.285,12.34A52.067,52.067,0,0,1,344.7,37.349a36.416,36.416,0,0,1-4.977,11.262,28.786,28.786,0,0,1-5.195,5.629c-.158.133-.032.409.139.3.671-.41,1.259-.835,1.916-1.319a32.24,32.24,0,0,0,3.817-3.258,36.267,36.267,0,0,0,6.713-10.1,59.347,59.347,0,0,0,4.466-12.732A44.876,44.876,0,0,0,352.7,16.8C352.57,8.448,350.553,3.08,345.047.574c-7.432-3.382-12.333,8.932-11.782,17.24.01.146.031.246.063.116s.025-.112.025-.112" transform="translate(-279.877 0)" fill="#0a090a"/>
    <path id="パス_9972" data-name="パス 9972" d="M8.31,553.52,4.443,553.5l0-.557a2.636,2.636,0,0,0,.715-.065.309.309,0,0,0,.226-.329,1.018,1.018,0,0,0-.071-.369l-.382-.971-2.663-.015-.2.532a2.126,2.126,0,0,0-.173.647.429.429,0,0,0,.279.462,2.021,2.021,0,0,0,.656.1l0,.557L0,553.472l0-.557a1.2,1.2,0,0,0,.576-.124,1.278,1.278,0,0,0,.454-.479,6.443,6.443,0,0,0,.469-1l2.4-6.185.575,0,2.463,6.406q.269.68.394.919a.911.911,0,0,0,.349.371,1.261,1.261,0,0,0,.629.134ZM4.72,550.612,3.6,547.743,2.51,550.6Z" transform="translate(0 -457.858)" fill="#0a090a"/>
    <path id="パス_9973" data-name="パス 9973" d="M58.78,565.982a.51.51,0,0,1-.12.35.353.353,0,0,1-.27.131.6.6,0,0,1-.38-.165.967.967,0,0,1-.1-.076.987.987,0,0,0-.121-.088.2.2,0,0,0-.1-.031.4.4,0,0,0-.3.119,2.685,2.685,0,0,1,.315.495,1.378,1.378,0,0,1,.109.6,1.412,1.412,0,0,1-.226.813,1.47,1.47,0,0,1-.584.5,3.155,3.155,0,0,1-.734.25q-.373.076-.954.152-1.43.168-1.432.573c0,.117.07.2.213.244a2.306,2.306,0,0,0,.638.07l.92.005a7.6,7.6,0,0,1,.847.05,3.294,3.294,0,0,1,.825.214,1.716,1.716,0,0,1,.714.531,1.465,1.465,0,0,1,.291.958,1.717,1.717,0,0,1-.275.888,2.061,2.061,0,0,1-.964.754,4.588,4.588,0,0,1-1.86.3,6.951,6.951,0,0,1-1.811-.252,1.056,1.056,0,0,1-.893-1.089.883.883,0,0,1,.175-.529.6.6,0,0,1,.525-.236.831.831,0,0,1,.453.111.766.766,0,0,0,.324,1.137,2.644,2.644,0,0,0,1.393.3,3.369,3.369,0,0,0,1.482-.261.807.807,0,0,0,.546-.708.532.532,0,0,0-.23-.473,1.466,1.466,0,0,0-.665-.207q-.432-.048-1.346-.065a5.474,5.474,0,0,1-1.742-.252.933.933,0,0,1-.63-.978.987.987,0,0,1,.477-.911,3.833,3.833,0,0,1,1.165-.429q-1.62-.318-1.613-1.535a1.7,1.7,0,0,1,.992-1.52,3.157,3.157,0,0,1,1.488-.288,2.715,2.715,0,0,1,1.831.567,1.148,1.148,0,0,1,.978-.539.685.685,0,0,1,.477.157.48.48,0,0,1,.167.367m-2.489,1.251a1.7,1.7,0,0,0-.225-.9.781.781,0,0,0-.718-.385.811.811,0,0,0-.752.35,1.59,1.59,0,0,0-.223.849,2.045,2.045,0,0,0,.2.912.771.771,0,0,0,.763.419.843.843,0,0,0,.689-.32,1.438,1.438,0,0,0,.269-.928" transform="translate(-44.124 -474.908)" fill="#0a090a"/>
    <path id="パス_9974" data-name="パス 9974" d="M96.6,553.739l-3.287-.019,0-.557h.175a1.03,1.03,0,0,0,.512-.094.4.4,0,0,0,.2-.271,2.73,2.73,0,0,0,.039-.514l.01-1.8a2.168,2.168,0,0,0-.042-.533.354.354,0,0,0-.235-.231,2.048,2.048,0,0,0-.638-.082l0-.557,2.485-.506-.021,3.716a1.336,1.336,0,0,0,.123.7q.126.188.677.191Zm-.641-7.528a.868.868,0,1,1-.251-.631.855.855,0,0,1,.251.631" transform="translate(-78.375 -458.021)" fill="#0a090a"/>
    <path id="パス_9975" data-name="パス 9975" d="M124.2,570.968l-3.135-.018,0-.557a1.033,1.033,0,0,0,.512-.091.4.4,0,0,0,.192-.274,3.444,3.444,0,0,0,.04-.6l.01-1.713a1.825,1.825,0,0,0-.147-.815.624.624,0,0,0-.616-.3,1.048,1.048,0,0,0-.95.482,2.039,2.039,0,0,0-.318,1.121l-.008,1.356a1.1,1.1,0,0,0,.136.654.755.755,0,0,0,.6.179l0,.557-3.2-.018,0-.557a1.789,1.789,0,0,0,.581-.066.389.389,0,0,0,.25-.247,1.918,1.918,0,0,0,.064-.565l.011-1.955a.7.7,0,0,0-.16-.555,1.315,1.315,0,0,0-.726-.134l0-.557,2.358-.507a4.275,4.275,0,0,1,.051.654q0,.079,0,.136c0,.038,0,.082,0,.13a4.025,4.025,0,0,1,.8-.658,1.911,1.911,0,0,1,1.03-.251,2.249,2.249,0,0,1,.934.193,1.453,1.453,0,0,1,.647.573,1.715,1.715,0,0,1,.231.921l-.012,2.04a1.259,1.259,0,0,0,.132.7q.135.189.7.192Z" transform="translate(-98.54 -475.207)" fill="#0a090a"/>
    <path id="パス_9976" data-name="パス 9976" d="M169.446,566.614a.51.51,0,0,1-.12.35.353.353,0,0,1-.27.131.6.6,0,0,1-.38-.165.985.985,0,0,1-.1-.076.975.975,0,0,0-.121-.088.2.2,0,0,0-.1-.031.4.4,0,0,0-.3.119,2.685,2.685,0,0,1,.315.495,1.378,1.378,0,0,1,.109.6,1.414,1.414,0,0,1-.226.813,1.467,1.467,0,0,1-.584.5,3.158,3.158,0,0,1-.734.25q-.373.076-.954.152-1.43.168-1.432.573c0,.117.07.2.213.244a2.3,2.3,0,0,0,.638.07l.92.005a7.59,7.59,0,0,1,.847.05,3.292,3.292,0,0,1,.825.214,1.715,1.715,0,0,1,.714.531,1.465,1.465,0,0,1,.291.958,1.717,1.717,0,0,1-.275.888,2.059,2.059,0,0,1-.963.754,4.588,4.588,0,0,1-1.86.3,6.952,6.952,0,0,1-1.811-.252,1.056,1.056,0,0,1-.893-1.089.883.883,0,0,1,.175-.529.6.6,0,0,1,.525-.236.83.83,0,0,1,.453.111.766.766,0,0,0,.324,1.137,2.644,2.644,0,0,0,1.393.3,3.37,3.37,0,0,0,1.481-.261.806.806,0,0,0,.546-.708.532.532,0,0,0-.23-.473,1.465,1.465,0,0,0-.665-.207q-.433-.048-1.347-.065a5.47,5.47,0,0,1-1.742-.252.933.933,0,0,1-.63-.978.986.986,0,0,1,.478-.911,3.832,3.832,0,0,1,1.165-.429q-1.621-.318-1.614-1.535a1.7,1.7,0,0,1,.992-1.52,3.157,3.157,0,0,1,1.488-.288,2.715,2.715,0,0,1,1.831.567,1.148,1.148,0,0,1,.978-.539.685.685,0,0,1,.478.157.48.48,0,0,1,.167.367m-2.489,1.251a1.7,1.7,0,0,0-.225-.9.78.78,0,0,0-.718-.385.81.81,0,0,0-.752.35,1.59,1.59,0,0,0-.223.849,2.045,2.045,0,0,0,.2.912.771.771,0,0,0,.763.419.842.842,0,0,0,.689-.32,1.438,1.438,0,0,0,.269-.928" transform="translate(-137.073 -475.439)" fill="#0a090a"/>
    <path id="パス_9977" data-name="パス 9977" d="M233.237,554.794l-.569,0a2.719,2.719,0,0,0-.412-.935,4.8,4.8,0,0,1-1.058.818,3.185,3.185,0,0,1-1.606.336,4.088,4.088,0,0,1-2.052-.55,4.032,4.032,0,0,1-1.5-1.513,4.239,4.239,0,0,1-.55-2.179,4.461,4.461,0,0,1,.315-1.639,4.173,4.173,0,0,1,.879-1.369,4.083,4.083,0,0,1,1.355-.924,4.277,4.277,0,0,1,1.718-.329,3.446,3.446,0,0,1,2.536,1.02,3.818,3.818,0,0,0,.264-.755l.545,0,.08,3.021-.581,0a3.693,3.693,0,0,0-.561-1.371,2.927,2.927,0,0,0-.972-.923,2.384,2.384,0,0,0-1.182-.325,2.141,2.141,0,0,0-1.243.371,2.464,2.464,0,0,0-.869,1.148,5.2,5.2,0,0,0-.323,1.929,5.765,5.765,0,0,0,.25,1.875,2.927,2.927,0,0,0,.638,1.133,2.115,2.115,0,0,0,.769.522,2.193,2.193,0,0,0,.725.14,2.354,2.354,0,0,0,1.343-.392,3.327,3.327,0,0,0,.983-1,3.748,3.748,0,0,0,.515-1.2l.581,0Z" transform="translate(-189.389 -459.014)" fill="#0a090a"/>
    <path id="パス_9978" data-name="パス 9978" d="M288.353,570.636a1.54,1.54,0,0,1-.192.783,1.165,1.165,0,0,1-.508.475,1.621,1.621,0,0,1-.718.15,1.436,1.436,0,0,1-.846-.244.922.922,0,0,1-.4-.574,3.246,3.246,0,0,1-2.038.8,1.721,1.721,0,0,1-1.07-.324,1,1,0,0,1-.413-.841,1.406,1.406,0,0,1,.228-.776,2.074,2.074,0,0,1,.66-.617,5.062,5.062,0,0,1,1.035-.475q.6-.206,1.5-.43l0-.345a1.028,1.028,0,0,0-.2-.676.933.933,0,0,0-.746-.249.962.962,0,0,0-.673.19,1.013,1.013,0,0,0-.276.586,1.082,1.082,0,0,1-.181.456.644.644,0,0,1-.543.175.726.726,0,0,1-.447-.148.5.5,0,0,1-.191-.431,1.188,1.188,0,0,1,.617-.977,3.365,3.365,0,0,1,1.879-.407,2.8,2.8,0,0,1,1.828.458,1.53,1.53,0,0,1,.493,1.2l-.011,1.913q0,.363.015.533a.435.435,0,0,0,.1.258.354.354,0,0,0,.533-.073.653.653,0,0,0,.121-.393Zm-2.778.033.009-1.5a3.583,3.583,0,0,0-1.466.7,1.038,1.038,0,0,0-.316.679.605.605,0,0,0,.167.449.646.646,0,0,0,.477.172,1.2,1.2,0,0,0,.588-.136,3.7,3.7,0,0,0,.541-.366" transform="translate(-236.993 -476.006)" fill="#0a090a"/>
    <path id="パス_9979" data-name="パス 9979" d="M326.768,567.924a.726.726,0,0,1-.218.553.714.714,0,0,1-.507.2.753.753,0,0,1-.6-.342,1.636,1.636,0,0,0-.2-.219.339.339,0,0,0-.224-.068.81.81,0,0,0-.738.507,2.293,2.293,0,0,0-.269,1.061L324,570.669a1.309,1.309,0,0,0,.126.7q.129.188.686.192l.321,0,0,.557-3.759-.021,0-.557.315,0q.509,0,.625-.19a1.465,1.465,0,0,0,.119-.689l.01-1.767a1.49,1.49,0,0,0-.078-.582.427.427,0,0,0-.292-.234,2.837,2.837,0,0,0-.678-.061l0-.557,2.364-.507a8.073,8.073,0,0,1,.162,1.314,2.582,2.582,0,0,1,.449-.651,2.335,2.335,0,0,1,.62-.475,1.474,1.474,0,0,1,.7-.178,1.091,1.091,0,0,1,.785.283.9.9,0,0,1,.287.68" transform="translate(-269.925 -476.186)" fill="#0a090a"/>
    <path id="パス_9980" data-name="パス 9980" d="M360.169,569.667l-3.722-.021q.005.115.03.49a2.878,2.878,0,0,0,.165.77,1.448,1.448,0,0,0,.487.666,1.489,1.489,0,0,0,.934.275,2.361,2.361,0,0,0,.776-.159,1.662,1.662,0,0,0,.79-.625l.471.324a2.478,2.478,0,0,1-2.276,1.131,3.826,3.826,0,0,1-1.267-.207,2.846,2.846,0,0,1-.968-.562,2.412,2.412,0,0,1-.607-.845,2.564,2.564,0,0,1-.206-1.042,2.7,2.7,0,0,1,.362-1.354,2.594,2.594,0,0,1,1.02-.987,3.031,3.031,0,0,1,1.509-.361,2.6,2.6,0,0,1,1.4.365,2.2,2.2,0,0,1,.839.931,2.768,2.768,0,0,1,.265,1.212m-1.5-.565q.008-1.38-1.082-1.386a.943.943,0,0,0-.81.377,1.793,1.793,0,0,0-.317,1Z" transform="translate(-297.978 -476.361)" fill="#0a090a"/>
    <path id="パス_9981" data-name="パス 9981" d="M423.52,548.95a1.733,1.733,0,0,0-.646.142.748.748,0,0,0-.323.376,8.355,8.355,0,0,0-.317.964l-1.743,6.3-.841,0-2.067-5.913-2,5.89-.829,0-1.864-6.5a5.284,5.284,0,0,0-.307-.862.758.758,0,0,0-.331-.368,1.331,1.331,0,0,0-.541-.091l0-.557,3.553.02,0,.557a2.045,2.045,0,0,0-.612.063q-.194.066-.2.356a2.722,2.722,0,0,0,.136.661l1.175,4.1,1.957-5.727.793,0,2,5.75,1.051-3.844a2.509,2.509,0,0,0,.113-.635q0-.442-.272-.564a1.9,1.9,0,0,0-.7-.137l0-.557,2.815.016Z" transform="translate(-345.799 -460.543)" fill="#0a090a"/>
    <path id="パス_9982" data-name="パス 9982" d="M488.266,555.976l-3.287-.019,0-.557h.175a1.029,1.029,0,0,0,.512-.094.4.4,0,0,0,.2-.271,2.717,2.717,0,0,0,.039-.514l.01-1.8a2.172,2.172,0,0,0-.042-.533.353.353,0,0,0-.235-.231,2.053,2.053,0,0,0-.638-.082l0-.557,2.485-.506-.021,3.716a1.338,1.338,0,0,0,.123.7q.126.188.677.191Zm-.641-7.528a.868.868,0,1,1-.251-.631.855.855,0,0,1,.251.631" transform="translate(-407.337 -459.899)" fill="#0a090a"/>
    <path id="パス_9983" data-name="パス 9983" d="M515.868,573.2l-3.135-.018,0-.557a1.034,1.034,0,0,0,.512-.091.4.4,0,0,0,.192-.274,3.412,3.412,0,0,0,.04-.6l.01-1.713a1.823,1.823,0,0,0-.147-.815.623.623,0,0,0-.616-.3,1.048,1.048,0,0,0-.95.482,2.037,2.037,0,0,0-.318,1.121l-.008,1.356a1.1,1.1,0,0,0,.136.654.755.755,0,0,0,.6.179l0,.557-3.2-.018,0-.557a1.788,1.788,0,0,0,.581-.066.389.389,0,0,0,.25-.247,1.908,1.908,0,0,0,.064-.565l.011-1.955a.7.7,0,0,0-.16-.555,1.314,1.314,0,0,0-.726-.134l0-.557,2.357-.507a4.28,4.28,0,0,1,.051.654c0,.052,0,.1,0,.136s0,.082,0,.13a4.029,4.029,0,0,1,.8-.658,1.911,1.911,0,0,1,1.03-.251,2.248,2.248,0,0,1,.934.193,1.452,1.452,0,0,1,.647.573,1.716,1.716,0,0,1,.231.921l-.012,2.04a1.262,1.262,0,0,0,.132.7q.135.189.7.192Z" transform="translate(-427.501 -477.086)" fill="#0a090a"/>
    <path id="パス_9984" data-name="パス 9984" d="M558.858,570.8l-3.722-.021q.005.115.03.49a2.878,2.878,0,0,0,.165.77,1.448,1.448,0,0,0,.487.666,1.489,1.489,0,0,0,.934.275,2.357,2.357,0,0,0,.776-.159,1.661,1.661,0,0,0,.79-.625l.471.324a2.478,2.478,0,0,1-2.276,1.131,3.824,3.824,0,0,1-1.267-.207,2.846,2.846,0,0,1-.968-.562,2.412,2.412,0,0,1-.607-.845,2.564,2.564,0,0,1-.206-1.042,2.7,2.7,0,0,1,.362-1.354,2.594,2.594,0,0,1,1.019-.987,3.034,3.034,0,0,1,1.509-.361,2.6,2.6,0,0,1,1.4.365,2.2,2.2,0,0,1,.839.931,2.767,2.767,0,0,1,.265,1.212m-1.5-.565q.008-1.38-1.082-1.386a.943.943,0,0,0-.81.377,1.794,1.794,0,0,0-.317,1Z" transform="translate(-464.858 -477.314)" fill="#0a090a"/>
  </g>
</svg>
